# xmcd
# 
# Track frame offsets:
#     150
#     33785
#     62443
#     86901
# 
# Disc length: 1395
# 
# Revision: 0
# Processed by: cddbd v1.5.2PL0 Copyright (c) Steve Scherf et al.
# Submitted via: fre:ac v1.0.17
# 
DISCID=27057104
DTITLE=Vestigial - Aeon
DYEAR=0
DGENRE=
TTITLE0=Last extinction prayer
TTITLE1=The grey constellation
TTITLE2=Dagda rising
TTITLE3=Celebrating the new sun
EXTD=
EXTT0=
EXTT1=
EXTT2=
EXTT3=
PLAYORDER=
